<?xml version="1.0" encoding="utf-8"?>
<!-- Generator: Adobe Illustrator 16.0.0, SVG Export Plug-In . SVG Version: 6.00 Build 0)  -->
<!DOCTYPE svg PUBLIC "-//W3C//DTD SVG 1.1//EN" "http://www.w3.org/Graphics/SVG/1.1/DTD/svg11.dtd">
<svg version="1.1" id="Layer_1" xmlns="http://www.w3.org/2000/svg" xmlns:xlink="http://www.w3.org/1999/xlink" x="0px" y="0px"
	 width="486px" height="552.4px" viewBox="62.5 42.5 486 552.4" enable-background="new 62.5 42.5 486 552.4" xml:space="preserve">
<g>
	<path fill="#FFFFFF" d="M546.498,565.059c0,0-120.877,29.842-241.44,29.842c-119.94,0-239.555-29.842-239.555-29.842
		l34.352-367.812h81.885v-11.72c0-78.104,46.653-141.427,124.757-141.427c78.109,0,120.979,63.324,120.979,141.427v11.72h84.671
		L546.498,565.059z M377.206,185.527c0-58.581-12.124-106.072-70.71-106.072c-58.575,0-70.711,47.491-70.711,106.072v11.72H377.2
		v-11.72H377.206z"/>
</g>
<text transform="matrix(1 0 0 1 0 717.3008)" font-family="'HelveticaNeue-Bold'" font-size="30.6">Created by Alexander Bickov</text>
<text transform="matrix(1 0 0 1 0 747.8984)" font-family="'HelveticaNeue-Bold'" font-size="30.6">from the Noun Project</text>
</svg>
