<?xml version="1.0" encoding="utf-8"?>
<!-- Generator: Adobe Illustrator 16.0.0, SVG Export Plug-In . SVG Version: 6.00 Build 0)  -->
<!DOCTYPE svg PUBLIC "-//W3C//DTD SVG 1.1//EN" "http://www.w3.org/Graphics/SVG/1.1/DTD/svg11.dtd">
<svg version="1.1" id="Layer_1" xmlns="http://www.w3.org/2000/svg" xmlns:xlink="http://www.w3.org/1999/xlink" x="0px" y="0px"
	 width="612px" height="687.5px" viewBox="0 0 612 687.5" enable-background="new 0 0 612 687.5" xml:space="preserve">
<path d="M558.371,273.087h-35.02H471.92L367.844,164.243c-8.018-8.396-19.604-10.331-25.889-4.309l-3.881,3.721
	c-6.291,5.992-4.883,17.656,3.141,26.059l79.725,83.373H210.804l79.719-83.367c8.035-8.402,9.438-20.061,3.158-26.059l-3.893-3.721
	c-6.279-6.016-17.877-4.088-25.894,4.309L159.806,273.087h-68.6H53.63c-13.274,0-24.04,10.997-24.04,24.571
	s10.766,24.571,24.04,24.571h3.005L91.2,494.222c5.863,21.873,16.579,36.849,37.038,36.849H486.32
	c20.459,0,31.695-17.785,37.031-36.849l34.572-171.992h0.441c13.285,0,24.045-10.997,24.045-24.571S571.656,273.087,558.371,273.087
	z M175.919,507.948c-0.918,0.172-1.836,0.264-2.729,0.264c-6.658,0-12.601-4.706-13.916-11.481l-30.692-157.51
	c-1.499-7.693,3.525-15.147,11.218-16.646c7.699-1.488,15.147,3.525,16.646,11.218l30.692,157.504
	C188.631,498.989,183.612,506.449,175.919,507.948z M239.812,505.831c-0.367,0.024-0.734,0.043-1.096,0.043
	c-7.351,0-13.574-5.673-14.144-13.115l-11.897-155.706c-0.605-7.815,5.251-14.64,13.072-15.239
	c7.81-0.562,14.64,5.258,15.233,13.072l11.896,155.712C253.479,498.407,247.627,505.231,239.812,505.831z M321.895,491.908
	c0,7.833-6.354,14.192-14.193,14.192s-14.192-6.359-14.192-14.192V335.744c0-7.84,6.353-14.192,14.192-14.192
	s14.193,6.358,14.193,14.192V491.908z M402.721,337.053l-11.896,155.706c-0.57,7.442-6.787,13.115-14.139,13.115
	c-0.367,0-0.729-0.019-1.102-0.043c-7.809-0.605-13.666-7.424-13.072-15.232l11.898-155.712c0.605-7.814,7.41-13.653,15.232-13.072
	C397.463,322.414,403.314,329.238,402.721,337.053z M486.816,339.22l-30.686,157.51c-1.328,6.775-7.271,11.481-13.918,11.481
	c-0.9,0-1.811-0.092-2.729-0.264c-7.693-1.499-12.719-8.959-11.219-16.652l30.691-157.504c1.494-7.699,8.947-12.712,16.646-11.218
	C483.297,324.073,488.314,331.527,486.816,339.22z"/>
</svg>
